<?xml version="1.0" encoding="utf-8"?>
<!-- Generator: Adobe Illustrator 23.0.2, SVG Export Plug-In . SVG Version: 6.00 Build 0)  -->
<svg version="1.1" id="Layer_1" xmlns="http://www.w3.org/2000/svg" xmlns:xlink="http://www.w3.org/1999/xlink" x="0px" y="0px"
	 viewBox="0 0 678.1 352.1" style="enable-background:new 0 0 678.1 352.1;" xml:space="preserve">
<style type="text/css">
	.st0{fill:#C1272D;stroke:#C1272D;stroke-width:5;stroke-miterlimit:10;}
	.st1{fill:#C1272D;stroke:#FFFFFF;stroke-width:5;stroke-miterlimit:10;}
	.st2{fill:url(#SVGID_1_);}
	.st3{fill:url(#SVGID_2_);}
	.st4{fill:url(#SVGID_3_);}
	.st5{fill:url(#SVGID_4_);}
	.st6{fill:url(#SVGID_5_);}
	.st7{fill:url(#SVGID_6_);}
	.st8{fill:url(#SVGID_7_);}
	.st9{fill:url(#SVGID_8_);}
	.st10{fill:url(#SVGID_9_);}
	.st11{fill:url(#SVGID_10_);}
	.st12{fill:url(#SVGID_11_);}
	.st13{fill:url(#SVGID_12_);}
	.st14{fill:url(#SVGID_13_);}
	.st15{fill:url(#SVGID_14_);}
	.st16{fill:url(#SVGID_15_);}
	.st17{fill:url(#SVGID_16_);}
	.st18{fill:url(#SVGID_17_);}
	.st19{fill:url(#SVGID_18_);}
	.st20{fill:none;}
</style>
<g>

		<image style="overflow:visible;" width="1920" height="1080" xlink:href="garden_splash.png"  transform="matrix(1 0 0 1 -620.9377 660.1465)">
	</image>
</g>
<image style="overflow:visible;enable-background:new    ;" width="2250" height="1366" xlink:href="smoke.png"  transform="matrix(0.2983 0 0 0.283 -581.2521 731.0002)">
</image>
<path class="st0" d="M-98.6,896.9"/>
<path class="st0" d="M-193.7,901.6"/>
<path class="st1" d="M-40.3,1028.8"/>
<linearGradient id="SVGID_1_" gradientUnits="userSpaceOnUse" x1="-164.8454" y1="161.8228" x2="-129.5028" y2="161.8228" gradientTransform="matrix(1 0 0 -1 0 1080)">
	<stop  offset="1.118836e-07" style="stop-color:#FF0000"/>
	<stop  offset="1" style="stop-color:#000000"/>
</linearGradient>
<path class="st2" d="M-129.5,908.2l-35.3,6.4c13.5,2.4,25.4,6.3,33.5,13.5"/>
<linearGradient id="SVGID_2_" gradientUnits="userSpaceOnUse" x1="-29.9313" y1="277.5168" x2="-22.784" y2="262.3876" gradientTransform="matrix(0.9966 -8.216750e-02 -8.216750e-02 -0.9966 42.6493 1157.8889)">
	<stop  offset="1.118836e-07" style="stop-color:#FF0000"/>
	<stop  offset="1" style="stop-color:#000000"/>
</linearGradient>
<polyline class="st3" points="-17.3,887.9 -16.2,891.7 -12.8,888 -11.4,893.6 -6.9,889.4 -5.1,895.9 -1.2,890.5 1.7,896.3
	4.3,889.9 "/>
<linearGradient id="SVGID_3_" gradientUnits="userSpaceOnUse" x1="-15.5944" y1="189.7513" x2="16.6777" y2="189.7513" gradientTransform="matrix(1.0172 6.292150e-02 -6.292150e-02 -1.2304 13.4407 1129.2498)">
	<stop  offset="1.118836e-07" style="stop-color:#FF0000"/>
	<stop  offset="1" style="stop-color:#000000"/>
</linearGradient>
<path class="st4" d="M-14.3,896.5l8.4-1.1l12.1,1l7.5-4.4l-0.3,3.5c0,0,5.2-2.7,4.9-2.6c-0.3,0.1-0.1,5.3-6.2,6.7
	c-6.1,1.4-11-0.4-11-0.4l-9.3-1.1l-2.1,1.5L-14.3,896.5z"/>
<linearGradient id="SVGID_4_" gradientUnits="userSpaceOnUse" x1="-87.4212" y1="206.8228" x2="-68.3712" y2="187.7728" gradientTransform="matrix(1 0 0 -1 0 1080)">
	<stop  offset="1.118836e-07" style="stop-color:#FF0000"/>
	<stop  offset="1" style="stop-color:#000000"/>
</linearGradient>
<path class="st5" d="M-65.4,889.2l-18-20.1c2.1,6.2,3,12.6,3,19.2"/>
<linearGradient id="SVGID_5_" gradientUnits="userSpaceOnUse" x1="-109.0692" y1="212.7208" x2="-91.7819" y2="195.4335" gradientTransform="matrix(1 0 0 -1 0 1080)">
	<stop  offset="1.118836e-07" style="stop-color:#FF0000"/>
	<stop  offset="1" style="stop-color:#000000"/>
</linearGradient>
<path class="st6" d="M-90.5,883.3l-12.7-21.8c1.3,8.8,1.5,16.8,0,23.3"/>
<linearGradient id="SVGID_6_" gradientUnits="userSpaceOnUse" x1="-138.9712" y1="199.1728" x2="-114.5712" y2="199.1728" gradientTransform="matrix(1 0 0 -1 0 1080)">
	<stop  offset="1.118836e-07" style="stop-color:#FF0000"/>
	<stop  offset="1" style="stop-color:#000000"/>
</linearGradient>
<path class="st7" d="M-114.6,885.7l-24.4-16.2c7.2,8.1,12.6,15.8,14.6,22.6"/>
<linearGradient id="SVGID_7_" gradientUnits="userSpaceOnUse" x1="-144.6856" y1="143.5462" x2="-124.1868" y2="131.7112" gradientTransform="matrix(1 0 0 -1 0 1080)">
	<stop  offset="1.118836e-07" style="stop-color:#FF0000"/>
	<stop  offset="1" style="stop-color:#000000"/>
</linearGradient>
<path class="st8" d="M-130.8,929.6l-20.3,18c11-4.7,21.5-7.3,31.2-6.7"/>
<linearGradient id="SVGID_8_" gradientUnits="userSpaceOnUse" x1="-94.7914" y1="134.093" x2="-84.4413" y2="123.743" gradientTransform="matrix(1 0 0 -1 0 1080)">
	<stop  offset="1.118836e-07" style="stop-color:#FF0000"/>
	<stop  offset="1" style="stop-color:#000000"/>
</linearGradient>
<path class="st9" d="M-96.7,947.7l6,14.7c1.5-5.4,5.5-9.6,12.4-12.4"/>
<linearGradient id="SVGID_9_" gradientUnits="userSpaceOnUse" x1="-72.6868" y1="119.9805" x2="-63.8571" y2="104.687" gradientTransform="matrix(1 0 0 -1 0 1080)">
	<stop  offset="1.118836e-07" style="stop-color:#FF0000"/>
	<stop  offset="1" style="stop-color:#000000"/>
</linearGradient>
<path class="st10" d="M-68.5,957.5c1.2,7.4-1.8,13-6.8,17.7l19.9-4.9"/>
<linearGradient id="SVGID_10_" gradientUnits="userSpaceOnUse" x1="-78.9111" y1="76.7706" x2="-70.6714" y2="91.0421" gradientTransform="matrix(1 0 0 -1 0 1080)">
	<stop  offset="1.118836e-07" style="stop-color:#FF0000"/>
	<stop  offset="1" style="stop-color:#000000"/>
</linearGradient>
<path class="st11" d="M-61.8,995.5c-7.5-2.9-13.4-7.2-18.4-12.1l4.8,21.8"/>
<linearGradient id="SVGID_11_" gradientUnits="userSpaceOnUse" x1="-103.7477" y1="72.6628" x2="-93.8008" y2="89.8913" gradientTransform="matrix(1 0 0 -1 0 1080)">
	<stop  offset="1.118836e-07" style="stop-color:#FF0000"/>
	<stop  offset="1" style="stop-color:#000000"/>
</linearGradient>
<path class="st12" d="M-87.2,1007.6c-5.8-5.8-9.9-12.4-11.2-20.2l-3.9,17.7l-14-5.1"/>
<linearGradient id="SVGID_12_" gradientUnits="userSpaceOnUse" x1="-121.5374" y1="80.4421" x2="-112.6204" y2="95.8869" gradientTransform="matrix(1 0 0 -1 0 1080)">
	<stop  offset="1.118836e-07" style="stop-color:#FF0000"/>
	<stop  offset="1" style="stop-color:#000000"/>
</linearGradient>
<path class="st13" d="M-114.8,1000.8c-3-5.4-3.5-11.7-1.5-18.8l-10.9,14.3"/>
<linearGradient id="SVGID_13_" gradientUnits="userSpaceOnUse" x1="-143.6852" y1="99.9588" x2="-131.4852" y2="112.1588" gradientTransform="matrix(1 0 0 -1 0 1080)">
	<stop  offset="1.118836e-07" style="stop-color:#FF0000"/>
	<stop  offset="1" style="stop-color:#000000"/>
</linearGradient>
<path class="st14" d="M-143,980.7c4.9-3.4,11-5.4,17.7-6.7l-18.4-6.4"/>
<g>
	<g>

			<linearGradient id="SVGID_14_" gradientUnits="userSpaceOnUse" x1="-143.7771" y1="78.6404" x2="-51.2379" y2="171.1796" gradientTransform="matrix(1 0 0 -1 0 1080)">
			<stop  offset="1.118836e-07" style="stop-color:#FF0000"/>
			<stop  offset="1" style="stop-color:#000000"/>
		</linearGradient>
		<path class="st15" d="M-47.8,908c-7-28.3-43.7-34.4-67.8-27c-12.5,3.8-23.6,12.9-26.5,26.1c-2.6,12,0.5,24.8,8.9,33.7
			c17,18.1,48.3,6.5,63.7,26.9c2.4,3.1,4.5,7.8,4.9,10.7c0.7,4.7,0,8.3-2.3,11.5c-6.8,9.3-21.1,11.4-31.7,9.9
			c-7.5-1-14.8-3.5-21.9-6.2c-3.5-1.3-7-2.7-10.4-4.2c-1-0.4-2-0.8-2.9-1.4c-0.5-0.3-2.2-1.8-1.9-1.4c-1.7-2.3-2.4-9.7-1.6-13.8
			c0.4-2,0.8-1.6,3-2.8c1.4-0.8,4.6-2.9,5.9-2.6c14.8,4.4,21.2-18.7,6.4-23.1c-14.6-4.3-34.8,7.5-38.4,22.1
			c-1.7,6.7-0.9,14.8,0.2,21.6c1.4,7.8,5.3,14.6,11.8,19.2c5.8,4,13.3,6.3,19.8,8.9c6.9,2.7,14,5.1,21.4,6.5
			c15.9,3,32.6,1.7,46.7-6.9c12.5-7.7,21-20.8,20-35.8c-0.8-13.8-7.8-26.8-18.6-35.4c-11-8.8-24.4-13-38.2-14.9
			c-5.8-0.8-12.7-1-17.6-4.4c1.4,1-2.8-3.3-1.8-1.8c-1.9-2.8-1.9-3-2.5-6.4c0.4,2.2,0-1.7,0-1.8c0.1-1.5,0.1-1.7-0.1-0.5
			c0.1-0.8,0.3-1.6,0.5-2.4c0.3-1.2,1.3-3.2,2.8-4.5c3.6-3.2,9.6-4.7,14.5-5.1c7-0.6,15-0.6,21.5,2.2c4.9,2.1,7.8,5.1,8.9,9.6
			C-67.2,929.4-44.1,923-47.8,908L-47.8,908z"/>
	</g>
</g>
<linearGradient id="SVGID_15_" gradientUnits="userSpaceOnUse" x1="-84.7072" y1="184.4438" x2="-106.8944" y2="171.6342" gradientTransform="matrix(1 0 0 -1 0 1080)">
	<stop  offset="0" style="stop-color:#CC0707"/>
	<stop  offset="6.128430e-03" style="stop-color:#C60707"/>
	<stop  offset="5.160862e-02" style="stop-color:#9D0505"/>
	<stop  offset="0.1026" style="stop-color:#770404"/>
	<stop  offset="0.1581" style="stop-color:#570303"/>
	<stop  offset="0.2195" style="stop-color:#3B0202"/>
	<stop  offset="0.2888" style="stop-color:#250101"/>
	<stop  offset="0.3698" style="stop-color:#140101"/>
	<stop  offset="0.4699" style="stop-color:#090000"/>
	<stop  offset="0.6103" style="stop-color:#020000"/>
	<stop  offset="1" style="stop-color:#000000"/>
</linearGradient>
<path class="st16" d="M-94.4,906.8c-4.5-2-9.7-2.9-15.3-3.3c9.1-2.8,18.3-4,27.8-3"/>
<linearGradient id="SVGID_16_" gradientUnits="userSpaceOnUse" x1="-50.6631" y1="351.9843" x2="-83.6815" y2="294.7947" gradientTransform="matrix(0.9932 -0.1451 -0.1432 -0.9898 72.4391 1206.8318)">
	<stop  offset="1.118836e-07" style="stop-color:#FF0000"/>
	<stop  offset="1" style="stop-color:#000000"/>
</linearGradient>
<path class="st17" d="M-61.3,892.3l23.5-10.5c0.3-1.1,0.3-3.8-24-3.5c-31.4,0.4,33.9-7.4,41.9-7.5c-0.3,0.3,16.7,6.8,28.9,9.9
	c11.4,2.9-1.9,11.1-1.9,11.1c-9.8-2.2-19.4-3-28.6-2.2c0,0,13.6,13.1,23.3,13.2c8.1,0.1-5.6,15-10.6,9.4
	c-5.9-6.6-29.9-17.7-29.9-17.7c-1.8,0-2.6,9.8-7.7,23.7c-6.4,17.2-48-11-48-11C-92.3,899.1-77.2,895.6-61.3,892.3z"/>
<linearGradient id="SVGID_17_" gradientUnits="userSpaceOnUse" x1="-28.6712" y1="162.1728" x2="-28.6712" y2="162.1728" gradientTransform="matrix(1 0 0 -1 0 1080)">
	<stop  offset="1.118836e-07" style="stop-color:#FF0000"/>
	<stop  offset="1" style="stop-color:#000000"/>
</linearGradient>
<path class="st18" d="M-28.7,917.8"/>
<linearGradient id="SVGID_18_" gradientUnits="userSpaceOnUse" x1="-113.3322" y1="154.4724" x2="-113.3275" y2="131.2147" gradientTransform="matrix(1 -1.982468e-04 1.982496e-04 -1.1113 -6.968264e-02 1119.264)">
	<stop  offset="0" style="stop-color:#FF0000"/>
	<stop  offset="0.1518" style="stop-color:#DE0000"/>
	<stop  offset="0.4873" style="stop-color:#8A0000"/>
	<stop  offset="0.9792" style="stop-color:#060000"/>
	<stop  offset="1" style="stop-color:#000000"/>
</linearGradient>
<path class="st19" d="M-127.1,947.6c15.5,5.4,27.5,13.7,34.7,25.8c-12.5-7.2-28.2-7.5-42-13"/>
<rect x="-484.5" y="919.9" class="st20" width="356.4" height="111.2"/>
<text transform="matrix(1 0 0 1 -484.5208 956.1708)" style="fill:#B60000; font-family:'Algerian'; font-size:54.3283px;">RED DRAGOn</text>
<text transform="matrix(1 0 0 1 -484.5208 956.1708)" style="fill:none;stroke:#000000;stroke-miterlimit:10; font-family:'Algerian'; font-size:54.3283px;">RED DRAGOn</text>
</svg>
